# xmcd
#
# Track frame offsets:
#	150
#	1812
#	13535
#	26760
#	42480
#	56600
#	71775
#	88607
#	104907
#	119552
#	134475
#	155845
#	183068
#
# Disc length: 2864 seconds
#
# Revision: 1
# Processed by: cddbd v1.5.2PL0 Copyright (c) Steve Scherf et al.
# Submitted via: audiograbber 1.83.01
#
DISCID=b60b2e0d
DTITLE=Lil Bow Wow - Beware Of Dog
DYEAR=2000
DGENRE=Hip-Hop
TTITLE0=Intro
TTITLE1=The Future (Feat R.O.C.)
TTITLE2=Bounce With Me (Feat Xscape)
TTITLE3=Puppy Love (Feat Jagged Edge)
TTITLE4=You Know Me (Feat Jermaine Dupri and Da Brat)
TTITLE5=The Dog In Me
TTITLE6=Bow Wow (That's My Name) (Feat Snoop Dogg)
TTITLE7=This Playboy (Feat Jermaine Dupri, R.O.C and Big Duke)
TTITLE8=Ghetto Girls
TTITLE9=You Already Know
TTITLE10=Bounce With Me (Extended LP Mix) (Feat Xscape)
TTITLE11=Bow Wow (That's My Name) (Trackmasters Remix)
TTITLE12=Data Track
EXTD=
EXTT0=
EXTT1=
EXTT2=
EXTT3=
EXTT4=
EXTT5=
EXTT6=
EXTT7=
EXTT8=
EXTT9=
EXTT10=
EXTT11=
EXTT12=
PLAYORDER=
